<svg xmlns="http://www.w3.org/2000/svg" xmlns:xlink="http://www.w3.org/1999/xlink" id="processonSvg1000" viewBox="143.0 216.0 390.0 173.0" width="390.0" height="173.0"><defs id="ProcessOnDefs1001"/><g id="ProcessOnG1002"><path id="ProcessOnPath1003" d="M43.0 216.0H556.0V389.0H43.0V216.0Z" fill="none"/><g id="ProcessOnG1004"><g id="ProcessOnG1005" transform="matrix(1.0,0.0,0.0,1.0,319.0,249.0)" opacity="1.0"><path id="ProcessOnPath1006" d="M0.0 4.0Q0.0 0.0 4.0 0.0L204.0 0.0Q208.0 0.0 208.0 4.0L208.0 103.0Q208.0 107.0 204.0 107.0L4.0 107.0Q0.0 107.0 0.0 103.0Z" stroke="none" stroke-width="0.0" stroke-dasharray="none" opacity="1.0" fill="#ff9900"/></g><g id="ProcessOnG1007" transform="matrix(1.0,0.0,0.0,1.0,63.0,236.0)" opacity="1.0"><path id="ProcessOnPath1008" d="M0.0 0.0L330.0 0.0L330.0 133.0L0.0 133.0Z" stroke="none" stroke-width="0.0" stroke-dasharray="none" opacity="1.0" fill="none"/><g id="ProcessOnG1009" transform="matrix(1.0,0.0,0.0,1.0,0.0,4.0)"><text id="ProcessOnText1010" fill="#ffffff" font-size="100" x="164.0" y="102.5" font-family="Impact" font-weight="bold" font-style="normal" text-decoration="none" family="Impact" text-anchor="middle" size="100">Cat</text></g></g><g id="ProcessOnG1011" transform="matrix(1.0,0.0,0.0,1.0,310.0,267.0)" opacity="1.0"><path id="ProcessOnPath1012" d="M0.0 0.0L226.0 0.0L226.0 71.0L0.0 71.0Z" stroke="none" stroke-width="0.0" stroke-dasharray="none" opacity="1.0" fill="none"/><g id="ProcessOnG1013" transform="matrix(1.0,0.0,0.0,1.0,0.0,-27.0)"><text id="ProcessOnText1014" fill="#000000" font-size="100" x="112.0" y="102.5" font-family="Impact" font-weight="bold" font-style="normal" text-decoration="none" family="Impact" text-anchor="middle" size="100">hub</text></g></g></g></g></svg>
